<mxfile host="app.diagrams.net" modified="2022-12-14T01:34:51.892Z" agent="5.0 (Windows NT 10.0; Win64; x64) AppleWebKit/537.36 (KHTML, like Gecko) Chrome/108.0.0.0 Safari/537.36" version="20.6.2" etag="NNcaHd1nR0ol_hyhcHGe" type="github">
  <diagram id="DZ5HUXiQjT6yW1-y79Hq" name="Seite-1">
    <mxGraphModel dx="805" dy="393" grid="1" gridSize="10" guides="1" tooltips="1" connect="1" arrows="1" fold="1" page="1" pageScale="1" pageWidth="827" pageHeight="1169" math="0" shadow="0">
      <root>
        <mxCell id="0" />
        <mxCell id="1" parent="0" />
        <mxCell id="iNQ5zBXjD4cIQLPIC4p--6" style="edgeStyle=orthogonalEdgeStyle;rounded=0;orthogonalLoop=1;jettySize=auto;html=1;exitX=0.5;exitY=1;exitDx=0;exitDy=0;entryX=0.5;entryY=0;entryDx=0;entryDy=0;endArrow=none;endFill=0;dashed=1;" edge="1" parent="1" source="iNQ5zBXjD4cIQLPIC4p--1" target="iNQ5zBXjD4cIQLPIC4p--5">
          <mxGeometry relative="1" as="geometry" />
        </mxCell>
        <mxCell id="iNQ5zBXjD4cIQLPIC4p--1" value=":Main" style="rounded=0;whiteSpace=wrap;html=1;" vertex="1" parent="1">
          <mxGeometry x="60" y="110" width="50" height="40" as="geometry" />
        </mxCell>
        <mxCell id="iNQ5zBXjD4cIQLPIC4p--9" style="edgeStyle=orthogonalEdgeStyle;rounded=0;orthogonalLoop=1;jettySize=auto;html=1;exitX=0.5;exitY=1;exitDx=0;exitDy=0;entryX=0.5;entryY=0;entryDx=0;entryDy=0;dashed=1;endArrow=none;endFill=0;" edge="1" parent="1" source="iNQ5zBXjD4cIQLPIC4p--2" target="iNQ5zBXjD4cIQLPIC4p--7">
          <mxGeometry relative="1" as="geometry" />
        </mxCell>
        <mxCell id="iNQ5zBXjD4cIQLPIC4p--2" value=":Publisher" style="rounded=0;whiteSpace=wrap;html=1;" vertex="1" parent="1">
          <mxGeometry x="289" y="110" width="70" height="40" as="geometry" />
        </mxCell>
        <mxCell id="iNQ5zBXjD4cIQLPIC4p--12" style="edgeStyle=orthogonalEdgeStyle;rounded=0;orthogonalLoop=1;jettySize=auto;html=1;exitX=0.5;exitY=1;exitDx=0;exitDy=0;entryX=0.5;entryY=0;entryDx=0;entryDy=0;dashed=1;endArrow=none;endFill=0;" edge="1" parent="1" source="iNQ5zBXjD4cIQLPIC4p--3" target="iNQ5zBXjD4cIQLPIC4p--11">
          <mxGeometry relative="1" as="geometry" />
        </mxCell>
        <mxCell id="iNQ5zBXjD4cIQLPIC4p--3" value=":Report" style="rounded=0;whiteSpace=wrap;html=1;" vertex="1" parent="1">
          <mxGeometry x="440" y="110" width="50" height="40" as="geometry" />
        </mxCell>
        <mxCell id="iNQ5zBXjD4cIQLPIC4p--10" style="edgeStyle=orthogonalEdgeStyle;rounded=0;orthogonalLoop=1;jettySize=auto;html=1;exitX=0.5;exitY=1;exitDx=0;exitDy=0;entryX=0.5;entryY=0;entryDx=0;entryDy=0;dashed=1;endArrow=none;endFill=0;" edge="1" parent="1" source="iNQ5zBXjD4cIQLPIC4p--4" target="iNQ5zBXjD4cIQLPIC4p--8">
          <mxGeometry relative="1" as="geometry" />
        </mxCell>
        <mxCell id="iNQ5zBXjD4cIQLPIC4p--4" value=":Consumer" style="rounded=0;whiteSpace=wrap;html=1;" vertex="1" parent="1">
          <mxGeometry x="541" y="110" width="70" height="40" as="geometry" />
        </mxCell>
        <mxCell id="iNQ5zBXjD4cIQLPIC4p--13" style="edgeStyle=orthogonalEdgeStyle;rounded=0;orthogonalLoop=1;jettySize=auto;html=1;exitX=1;exitY=0.5;exitDx=0;exitDy=0;endArrow=classic;endFill=1;entryX=-0.08;entryY=0.082;entryDx=0;entryDy=0;entryPerimeter=0;" edge="1" parent="1" source="iNQ5zBXjD4cIQLPIC4p--5" target="iNQ5zBXjD4cIQLPIC4p--7">
          <mxGeometry relative="1" as="geometry">
            <mxPoint x="310" y="190" as="targetPoint" />
            <Array as="points" />
          </mxGeometry>
        </mxCell>
        <mxCell id="iNQ5zBXjD4cIQLPIC4p--14" value="register(consumer : Consumer)" style="edgeLabel;html=1;align=center;verticalAlign=middle;resizable=0;points=[];" vertex="1" connectable="0" parent="iNQ5zBXjD4cIQLPIC4p--13">
          <mxGeometry x="-0.2222" relative="1" as="geometry">
            <mxPoint x="11" y="-10" as="offset" />
          </mxGeometry>
        </mxCell>
        <mxCell id="iNQ5zBXjD4cIQLPIC4p--34" style="edgeStyle=orthogonalEdgeStyle;rounded=0;orthogonalLoop=1;jettySize=auto;html=1;exitX=0.5;exitY=1;exitDx=0;exitDy=0;entryX=0.5;entryY=0;entryDx=0;entryDy=0;dashed=1;endArrow=none;endFill=0;" edge="1" parent="1" source="iNQ5zBXjD4cIQLPIC4p--5" target="iNQ5zBXjD4cIQLPIC4p--33">
          <mxGeometry relative="1" as="geometry" />
        </mxCell>
        <mxCell id="iNQ5zBXjD4cIQLPIC4p--5" value="" style="rounded=0;whiteSpace=wrap;html=1;" vertex="1" parent="1">
          <mxGeometry x="80" y="180" width="10" height="20" as="geometry" />
        </mxCell>
        <mxCell id="iNQ5zBXjD4cIQLPIC4p--35" style="edgeStyle=orthogonalEdgeStyle;rounded=0;orthogonalLoop=1;jettySize=auto;html=1;exitX=0.5;exitY=1;exitDx=0;exitDy=0;entryX=0.5;entryY=0;entryDx=0;entryDy=0;dashed=1;endArrow=none;endFill=0;" edge="1" parent="1" source="iNQ5zBXjD4cIQLPIC4p--7" target="iNQ5zBXjD4cIQLPIC4p--32">
          <mxGeometry relative="1" as="geometry" />
        </mxCell>
        <mxCell id="iNQ5zBXjD4cIQLPIC4p--7" value="" style="rounded=0;whiteSpace=wrap;html=1;" vertex="1" parent="1">
          <mxGeometry x="319" y="180" width="10" height="120" as="geometry" />
        </mxCell>
        <mxCell id="iNQ5zBXjD4cIQLPIC4p--22" style="edgeStyle=orthogonalEdgeStyle;rounded=0;orthogonalLoop=1;jettySize=auto;html=1;exitX=0.5;exitY=1;exitDx=0;exitDy=0;entryX=0.5;entryY=0;entryDx=0;entryDy=0;dashed=1;endArrow=none;endFill=0;" edge="1" parent="1" source="iNQ5zBXjD4cIQLPIC4p--8" target="iNQ5zBXjD4cIQLPIC4p--21">
          <mxGeometry relative="1" as="geometry" />
        </mxCell>
        <mxCell id="iNQ5zBXjD4cIQLPIC4p--8" value="" style="rounded=0;whiteSpace=wrap;html=1;" vertex="1" parent="1">
          <mxGeometry x="571" y="180" width="10" height="20" as="geometry" />
        </mxCell>
        <mxCell id="iNQ5zBXjD4cIQLPIC4p--19" style="edgeStyle=orthogonalEdgeStyle;rounded=0;orthogonalLoop=1;jettySize=auto;html=1;exitX=0;exitY=0.75;exitDx=0;exitDy=0;entryX=1.1;entryY=0.646;entryDx=0;entryDy=0;entryPerimeter=0;endArrow=open;endFill=0;dashed=1;" edge="1" parent="1" source="iNQ5zBXjD4cIQLPIC4p--11" target="iNQ5zBXjD4cIQLPIC4p--7">
          <mxGeometry relative="1" as="geometry" />
        </mxCell>
        <mxCell id="iNQ5zBXjD4cIQLPIC4p--20" value="return" style="edgeLabel;html=1;align=center;verticalAlign=middle;resizable=0;points=[];" vertex="1" connectable="0" parent="iNQ5zBXjD4cIQLPIC4p--19">
          <mxGeometry x="0.0713" relative="1" as="geometry">
            <mxPoint y="-9" as="offset" />
          </mxGeometry>
        </mxCell>
        <mxCell id="iNQ5zBXjD4cIQLPIC4p--26" style="edgeStyle=orthogonalEdgeStyle;rounded=0;orthogonalLoop=1;jettySize=auto;html=1;exitX=0.5;exitY=1;exitDx=0;exitDy=0;entryX=0.5;entryY=0;entryDx=0;entryDy=0;endArrow=none;endFill=0;dashed=1;" edge="1" parent="1" source="iNQ5zBXjD4cIQLPIC4p--11" target="iNQ5zBXjD4cIQLPIC4p--25">
          <mxGeometry relative="1" as="geometry" />
        </mxCell>
        <mxCell id="iNQ5zBXjD4cIQLPIC4p--11" value="" style="rounded=0;whiteSpace=wrap;html=1;" vertex="1" parent="1">
          <mxGeometry x="460" y="220" width="10" height="50" as="geometry" />
        </mxCell>
        <mxCell id="iNQ5zBXjD4cIQLPIC4p--15" value="" style="endArrow=classic;html=1;rounded=0;" edge="1" parent="1">
          <mxGeometry width="50" height="50" relative="1" as="geometry">
            <mxPoint x="330" y="190" as="sourcePoint" />
            <mxPoint x="570" y="190" as="targetPoint" />
          </mxGeometry>
        </mxCell>
        <mxCell id="iNQ5zBXjD4cIQLPIC4p--16" value="register(consumer : Consumer)" style="edgeLabel;html=1;align=center;verticalAlign=middle;resizable=0;points=[];" vertex="1" connectable="0" parent="iNQ5zBXjD4cIQLPIC4p--15">
          <mxGeometry x="0.505" y="1" relative="1" as="geometry">
            <mxPoint x="-50" y="-9" as="offset" />
          </mxGeometry>
        </mxCell>
        <mxCell id="iNQ5zBXjD4cIQLPIC4p--17" value="" style="endArrow=classic;html=1;rounded=0;entryX=0.02;entryY=0.196;entryDx=0;entryDy=0;entryPerimeter=0;" edge="1" parent="1" target="iNQ5zBXjD4cIQLPIC4p--11">
          <mxGeometry width="50" height="50" relative="1" as="geometry">
            <mxPoint x="330" y="230" as="sourcePoint" />
            <mxPoint x="400" y="240" as="targetPoint" />
          </mxGeometry>
        </mxCell>
        <mxCell id="iNQ5zBXjD4cIQLPIC4p--18" value="produce(new Report())" style="edgeLabel;html=1;align=center;verticalAlign=middle;resizable=0;points=[];" vertex="1" connectable="0" parent="iNQ5zBXjD4cIQLPIC4p--17">
          <mxGeometry x="0.109" y="-2" relative="1" as="geometry">
            <mxPoint x="-12" y="-12" as="offset" />
          </mxGeometry>
        </mxCell>
        <mxCell id="iNQ5zBXjD4cIQLPIC4p--27" style="edgeStyle=orthogonalEdgeStyle;rounded=0;orthogonalLoop=1;jettySize=auto;html=1;exitX=0;exitY=0.75;exitDx=0;exitDy=0;entryX=1;entryY=0.25;entryDx=0;entryDy=0;endArrow=classic;endFill=1;" edge="1" parent="1" source="iNQ5zBXjD4cIQLPIC4p--21" target="iNQ5zBXjD4cIQLPIC4p--25">
          <mxGeometry relative="1" as="geometry" />
        </mxCell>
        <mxCell id="iNQ5zBXjD4cIQLPIC4p--28" value="bezieheReport()" style="edgeLabel;html=1;align=center;verticalAlign=middle;resizable=0;points=[];labelBackgroundColor=none;" vertex="1" connectable="0" parent="iNQ5zBXjD4cIQLPIC4p--27">
          <mxGeometry x="-0.1208" relative="1" as="geometry">
            <mxPoint x="-4" y="-5" as="offset" />
          </mxGeometry>
        </mxCell>
        <mxCell id="iNQ5zBXjD4cIQLPIC4p--36" style="edgeStyle=orthogonalEdgeStyle;rounded=0;orthogonalLoop=1;jettySize=auto;html=1;exitX=0.5;exitY=1;exitDx=0;exitDy=0;entryX=0.5;entryY=0;entryDx=0;entryDy=0;dashed=1;endArrow=none;endFill=0;" edge="1" parent="1" source="iNQ5zBXjD4cIQLPIC4p--21" target="iNQ5zBXjD4cIQLPIC4p--31">
          <mxGeometry relative="1" as="geometry" />
        </mxCell>
        <mxCell id="iNQ5zBXjD4cIQLPIC4p--21" value="" style="rounded=0;whiteSpace=wrap;html=1;" vertex="1" parent="1">
          <mxGeometry x="571" y="220" width="10" height="120" as="geometry" />
        </mxCell>
        <mxCell id="iNQ5zBXjD4cIQLPIC4p--23" value="" style="endArrow=classic;html=1;rounded=0;" edge="1" parent="1">
          <mxGeometry width="50" height="50" relative="1" as="geometry">
            <mxPoint x="330" y="290" as="sourcePoint" />
            <mxPoint x="570" y="290" as="targetPoint" />
          </mxGeometry>
        </mxCell>
        <mxCell id="iNQ5zBXjD4cIQLPIC4p--24" value="notifyConsumers()" style="edgeLabel;html=1;align=center;verticalAlign=middle;resizable=0;points=[];" vertex="1" connectable="0" parent="iNQ5zBXjD4cIQLPIC4p--23">
          <mxGeometry x="0.1617" y="-1" relative="1" as="geometry">
            <mxPoint x="-56" y="-11" as="offset" />
          </mxGeometry>
        </mxCell>
        <mxCell id="iNQ5zBXjD4cIQLPIC4p--29" style="edgeStyle=orthogonalEdgeStyle;rounded=0;orthogonalLoop=1;jettySize=auto;html=1;exitX=1;exitY=0.75;exitDx=0;exitDy=0;entryX=0;entryY=0.918;entryDx=0;entryDy=0;entryPerimeter=0;endArrow=open;endFill=0;dashed=1;" edge="1" parent="1" source="iNQ5zBXjD4cIQLPIC4p--25" target="iNQ5zBXjD4cIQLPIC4p--21">
          <mxGeometry relative="1" as="geometry" />
        </mxCell>
        <mxCell id="iNQ5zBXjD4cIQLPIC4p--30" value="return" style="edgeLabel;html=1;align=center;verticalAlign=middle;resizable=0;points=[];labelBackgroundColor=none;" vertex="1" connectable="0" parent="iNQ5zBXjD4cIQLPIC4p--29">
          <mxGeometry x="0.1308" y="1" relative="1" as="geometry">
            <mxPoint x="-7" y="-4" as="offset" />
          </mxGeometry>
        </mxCell>
        <mxCell id="iNQ5zBXjD4cIQLPIC4p--44" style="edgeStyle=orthogonalEdgeStyle;rounded=0;orthogonalLoop=1;jettySize=auto;html=1;exitX=0.5;exitY=1;exitDx=0;exitDy=0;endArrow=none;endFill=0;dashed=1;" edge="1" parent="1" source="iNQ5zBXjD4cIQLPIC4p--25">
          <mxGeometry relative="1" as="geometry">
            <mxPoint x="465" y="410" as="targetPoint" />
          </mxGeometry>
        </mxCell>
        <mxCell id="iNQ5zBXjD4cIQLPIC4p--25" value="" style="rounded=0;whiteSpace=wrap;html=1;" vertex="1" parent="1">
          <mxGeometry x="460" y="300" width="10" height="40" as="geometry" />
        </mxCell>
        <mxCell id="iNQ5zBXjD4cIQLPIC4p--37" style="edgeStyle=orthogonalEdgeStyle;rounded=0;orthogonalLoop=1;jettySize=auto;html=1;exitX=0.5;exitY=1;exitDx=0;exitDy=0;dashed=1;endArrow=none;endFill=0;" edge="1" parent="1" source="iNQ5zBXjD4cIQLPIC4p--31">
          <mxGeometry relative="1" as="geometry">
            <mxPoint x="576.2" y="410" as="targetPoint" />
          </mxGeometry>
        </mxCell>
        <mxCell id="iNQ5zBXjD4cIQLPIC4p--31" value="" style="rounded=0;whiteSpace=wrap;html=1;" vertex="1" parent="1">
          <mxGeometry x="571" y="370" width="10" height="20" as="geometry" />
        </mxCell>
        <mxCell id="iNQ5zBXjD4cIQLPIC4p--38" style="edgeStyle=orthogonalEdgeStyle;rounded=0;orthogonalLoop=1;jettySize=auto;html=1;exitX=0.5;exitY=1;exitDx=0;exitDy=0;dashed=1;endArrow=none;endFill=0;" edge="1" parent="1" source="iNQ5zBXjD4cIQLPIC4p--32">
          <mxGeometry relative="1" as="geometry">
            <mxPoint x="324.20000000000005" y="410" as="targetPoint" />
          </mxGeometry>
        </mxCell>
        <mxCell id="iNQ5zBXjD4cIQLPIC4p--42" style="edgeStyle=orthogonalEdgeStyle;rounded=0;orthogonalLoop=1;jettySize=auto;html=1;exitX=1;exitY=0.5;exitDx=0;exitDy=0;entryX=0;entryY=0.5;entryDx=0;entryDy=0;endArrow=classic;endFill=1;" edge="1" parent="1" source="iNQ5zBXjD4cIQLPIC4p--32" target="iNQ5zBXjD4cIQLPIC4p--31">
          <mxGeometry relative="1" as="geometry" />
        </mxCell>
        <mxCell id="iNQ5zBXjD4cIQLPIC4p--43" value="deRegister(consumer : Consumer)" style="edgeLabel;html=1;align=center;verticalAlign=middle;resizable=0;points=[];" vertex="1" connectable="0" parent="iNQ5zBXjD4cIQLPIC4p--42">
          <mxGeometry x="0.1074" y="1" relative="1" as="geometry">
            <mxPoint x="-23" y="-9" as="offset" />
          </mxGeometry>
        </mxCell>
        <mxCell id="iNQ5zBXjD4cIQLPIC4p--32" value="" style="rounded=0;whiteSpace=wrap;html=1;" vertex="1" parent="1">
          <mxGeometry x="319" y="370" width="10" height="20" as="geometry" />
        </mxCell>
        <mxCell id="iNQ5zBXjD4cIQLPIC4p--39" style="edgeStyle=orthogonalEdgeStyle;rounded=0;orthogonalLoop=1;jettySize=auto;html=1;exitX=0.5;exitY=1;exitDx=0;exitDy=0;dashed=1;endArrow=none;endFill=0;" edge="1" parent="1" source="iNQ5zBXjD4cIQLPIC4p--33">
          <mxGeometry relative="1" as="geometry">
            <mxPoint x="85" y="410.8" as="targetPoint" />
          </mxGeometry>
        </mxCell>
        <mxCell id="iNQ5zBXjD4cIQLPIC4p--40" style="edgeStyle=orthogonalEdgeStyle;rounded=0;orthogonalLoop=1;jettySize=auto;html=1;exitX=1;exitY=0.5;exitDx=0;exitDy=0;entryX=0;entryY=0.5;entryDx=0;entryDy=0;endArrow=classic;endFill=1;" edge="1" parent="1" source="iNQ5zBXjD4cIQLPIC4p--33" target="iNQ5zBXjD4cIQLPIC4p--32">
          <mxGeometry relative="1" as="geometry" />
        </mxCell>
        <mxCell id="iNQ5zBXjD4cIQLPIC4p--41" value="deRegister(consumer : Consumer)" style="edgeLabel;html=1;align=center;verticalAlign=middle;resizable=0;points=[];" vertex="1" connectable="0" parent="iNQ5zBXjD4cIQLPIC4p--40">
          <mxGeometry x="-0.1319" y="1" relative="1" as="geometry">
            <mxPoint y="-9" as="offset" />
          </mxGeometry>
        </mxCell>
        <mxCell id="iNQ5zBXjD4cIQLPIC4p--33" value="" style="rounded=0;whiteSpace=wrap;html=1;" vertex="1" parent="1">
          <mxGeometry x="80" y="370" width="10" height="20" as="geometry" />
        </mxCell>
      </root>
    </mxGraphModel>
  </diagram>
</mxfile>
